<?xml version="1.0" encoding="UTF-8"?>
<svg id="Layer_2" data-name="Layer 2" xmlns="http://www.w3.org/2000/svg" viewBox="0 0 50.95 50.95">
  <defs>
    <style>
      .cls-1 {
        fill: #818181;
        stroke-width: 0px;
      }
    </style>
  </defs>
  <g id="Layer_1-2" data-name="Layer 1">
    <path class="cls-1" d="M25.47,0C11.43,0,0,11.43,0,25.47s11.43,25.47,25.47,25.47,25.47-11.43,25.47-25.47S39.52,0,25.47,0ZM45.87,17.1c-1.79-.08-4.07.14-6.01,1.43-.45.3-.85.64-1.22,1.01-1-4.67-3.04-11.09-7.1-15.26,6.5,1.86,11.79,6.63,14.33,12.82ZM19.45,46.67c-.65-.18-1.29-.4-1.91-.64.8-2.84,2.02-8.97-.32-14.16-1.21-2.67-1.49-4.21-.99-5.97.6,1.5,1.57,3.05,3.16,4.29,2.03,1.59,4.68,2.38,7.91,2.38,2.01,0,4.27-.33,6.73-.95-2.07,3.02-4.96,3.35-6.09,3.35-3.82,0-7.29,6.86-8.23,10.36-.13.48-.21.92-.27,1.35ZM36.11,25.43c-.1.79-.23,1.5-.4,2.16-6.52,2.08-11.43,2.08-14.21-.08-2.63-2.04-2.82-5.56-2.82-6.65.44-.78.92-1.63,1.44-2.59,3.14-5.79-.04-10.61-3.11-13.17,1.85-.77,3.82-1.28,5.87-1.52,10.89,1.06,13.02,19.87,13.21,21.85ZM3.41,25.47c0-7.82,4.11-14.69,10.26-18.61.91.58,6.41,4.34,3.46,9.78-.54.99-1.04,1.88-1.49,2.68-2.9,5.13-4.35,7.71-1.54,13.94,1.75,3.87.95,8.66.3,11.25-6.56-3.83-10.99-10.92-10.99-19.05ZM25.47,47.53c-.91,0-1.8-.07-2.68-.18.11-1.22,1.03-4.02,2.79-6.6,1.27-1.86,2.16-2.34,2.36-2.36,4.89,0,10.5-3.34,11.59-12.72.24-2.06.96-3.46,2.2-4.28,1.68-1.12,3.99-.95,5.26-.74.35,1.56.55,3.17.55,4.83,0,12.16-9.9,22.06-22.06,22.06Z"/>
  </g>
</svg>