<?xml version="1.0" encoding="UTF-8"?>
<svg id="Layer_2" data-name="Layer 2" xmlns="http://www.w3.org/2000/svg" viewBox="0 0 50.95 33.29">
  <defs>
    <style>
      .cls-1 {
        fill: #818181;
        stroke-width: 0px;
      }
    </style>
  </defs>
  <g id="Layer_1-2" data-name="Layer 1">
    <path class="cls-1" d="M50.74,2.2c.19-.34.26-.74.15-1.13-.18-.63-.76-1.07-1.42-1.07H1.48C.82,0,.24.44.06,1.07c-.11.39-.04.79.15,1.13-.13.35-.21.72-.21,1.12v26.66c0,1.83,1.49,3.31,3.31,3.31h44.32c1.83,0,3.31-1.49,3.31-3.31V3.31c0-.39-.08-.77-.21-1.12ZM44.35,2.96l-18.88,11.93L6.59,2.96h37.76ZM47.63,30.33H3.31c-.2,0-.35-.16-.35-.35V4.17l21.72,13.73c.24.15.52.23.79.23s.55-.08.79-.23l21.72-13.73v25.81c0,.2-.16.35-.35.35Z"/>
  </g>
</svg>