<?xml version="1.0" encoding="UTF-8"?>
<svg id="Layer_2" data-name="Layer 2" xmlns="http://www.w3.org/2000/svg" viewBox="0 0 30.31 49.12">
  <defs>
    <style>
      .cls-1 {
        fill: #818181;
        stroke-width: 0px;
      }
    </style>
  </defs>
  <g id="Layer_1-2" data-name="Layer 1">
    <g>
      <path class="cls-1" d="M24.96,0H5.36C2.4,0,0,2.4,0,5.36v38.41c0,2.95,2.4,5.36,5.36,5.36h19.6c2.95,0,5.36-2.4,5.36-5.36V5.36c0-2.95-2.4-5.36-5.36-5.36ZM5.36,2.96h19.6c1.32,0,2.4,1.08,2.4,2.4v2.22H2.96v-2.22c0-1.32,1.08-2.4,2.4-2.4ZM27.36,36.46H2.96V10.53h24.4v25.93ZM24.96,46.16H5.36c-1.32,0-2.4-1.08-2.4-2.4v-4.34h24.4v4.34c0,1.32-1.08,2.4-2.4,2.4Z"/>
      <path class="cls-1" d="M15.16,41.1c-1,0-1.81.81-1.81,1.81s.81,1.81,1.81,1.81,1.81-.81,1.81-1.81-.81-1.81-1.81-1.81Z"/>
    </g>
  </g>
</svg>