<?xml version="1.0" encoding="UTF-8"?>
<svg id="Layer_2" data-name="Layer 2" xmlns="http://www.w3.org/2000/svg" viewBox="0 0 49.24 50.26">
  <defs>
    <style>
      .cls-1 {
        fill: #818181;
        stroke-width: 0px;
      }
    </style>
  </defs>
  <g id="Layer_1-2" data-name="Layer 1">
    <g>
      <path class="cls-1" d="M24.62,22.56c-6.22,0-11.28-5.06-11.28-11.28S18.4,0,24.62,0s11.28,5.06,11.28,11.28-5.06,11.28-11.28,11.28ZM24.62,2.96c-4.59,0-8.32,3.73-8.32,8.32s3.73,8.32,8.32,8.32,8.32-3.73,8.32-8.32-3.73-8.32-8.32-8.32Z"/>
      <path class="cls-1" d="M49.24,50.26H0v-7.29c0-9.17,7.46-16.63,16.63-16.63h15.99c9.17,0,16.63,7.46,16.63,16.63v7.29ZM2.96,47.3h43.32v-4.33c0-7.54-6.13-13.67-13.67-13.67h-15.99c-7.54,0-13.67,6.13-13.67,13.67v4.33Z"/>
    </g>
  </g>
</svg>