<?xml version="1.0" encoding="UTF-8"?>
<svg id="Layer_2" data-name="Layer 2" xmlns="http://www.w3.org/2000/svg" viewBox="0 0 79.31 79.31">
  <defs>
    <style>
      .cls-1 {
        fill: #818181;
        stroke-width: 0px;
      }
    </style>
  </defs>
  <g id="Layer_1-2" data-name="Layer 1">
    <g>
      <path class="cls-1" d="M57.39,79.31H21.92c-12.08,0-21.92-9.83-21.92-21.92V21.92C0,9.83,9.83,0,21.92,0h35.47c12.08,0,21.92,9.83,21.92,21.92v35.47c0,12.08-9.83,21.92-21.92,21.92ZM21.92,7.69c-7.84,0-14.22,6.38-14.22,14.22v35.47c0,7.84,6.38,14.22,14.22,14.22h35.47c7.84,0,14.22-6.38,14.22-14.22V21.92c0-7.84-6.38-14.22-14.22-14.22H21.92Z"/>
      <path class="cls-1" d="M39.65,60.18c-11.32,0-20.53-9.21-20.53-20.53s9.21-20.53,20.53-20.53,20.53,9.21,20.53,20.53-9.21,20.53-20.53,20.53ZM39.65,25.53c-7.79,0-14.12,6.33-14.12,14.12s6.33,14.12,14.12,14.12,14.12-6.33,14.12-14.12-6.33-14.12-14.12-14.12Z"/>
      <circle class="cls-1" cx="62.1" cy="18.29" r="4.54"/>
    </g>
  </g>
</svg>