<?xml version="1.0" encoding="UTF-8"?>
<svg id="Layer_2" data-name="Layer 2" xmlns="http://www.w3.org/2000/svg" viewBox="0 0 187.1 51.98">
  <defs>
    <style>
      .cls-1 {
        fill: #7f8080;
        stroke-width: 0px;
      }
    </style>
  </defs>
  <g id="Layer_1-2" data-name="Layer 1">
    <g>
      <g>
        <path class="cls-1" d="M56.35,41.65h6.88v1.27h-2.72v7.41h-1.43v-7.41h-2.72v-1.27Z"/>
        <path class="cls-1" d="M72.73,46.55h-4.04v2.52h4.75v1.27h-6.18v-8.69h6.18v1.27h-4.75v2.4h4.04v1.22Z"/>
        <path class="cls-1" d="M84.27,49.44s-.93,1.1-2.93,1.1c-2.66,0-4.39-2.03-4.39-4.53s1.72-4.55,4.39-4.55c2,0,2.93,1.09,2.93,1.09l-.83,1.12s-.75-.84-2.07-.84c-1.72,0-2.93,1.39-2.93,3.19s1.2,3.16,2.93,3.16c1.32,0,2.07-.83,2.07-.83l.83,1.1Z"/>
        <path class="cls-1" d="M95.49,50.34h-1.43v-3.69h-4.4v3.69h-1.43v-8.69h1.43v3.78h4.4v-3.78h1.43v8.69Z"/>
        <path class="cls-1" d="M107.74,50.34h-1.07l-5-6.17v6.17h-1.43v-8.69h1.09l4.98,6.14v-6.14h1.43v8.69Z"/>
        <path class="cls-1" d="M113.92,50.34h-1.43v-8.69h1.43v8.69Z"/>
        <path class="cls-1" d="M118.15,46.01c0-2.53,1.72-4.55,4.34-4.55s4.36,2.01,4.36,4.55c0,1.75-.84,3.27-2.24,4.03l1.13,1.94h-1.59l-.84-1.51c-.26.04-.54.07-.81.07-2.62,0-4.34-2.03-4.34-4.53ZM125.39,46.01c0-1.8-1.17-3.17-2.9-3.17s-2.87,1.38-2.87,3.17,1.16,3.14,2.87,3.14,2.9-1.36,2.9-3.14Z"/>
        <path class="cls-1" d="M130.95,46.66v-5.01h1.43v5.01c0,1.43.74,2.51,2.2,2.51s2.2-1.07,2.2-2.51v-5.01h1.43v5.01c0,2.26-1.33,3.88-3.63,3.88s-3.63-1.62-3.63-3.88Z"/>
        <path class="cls-1" d="M148.32,46.55h-4.04v2.52h4.75v1.27h-6.18v-8.69h6.18v1.27h-4.75v2.4h4.04v1.22Z"/>
      </g>
      <g>
        <g>
          <path class="cls-1" d="M.49,50.23c-.27,0-.49-.22-.49-.49V.49C0,.22.22,0,.49,0h49.25c.27,0,.49.22.49.49s-.22.49-.49.49H.99v48.75c0,.27-.22.49-.49.49Z"/>
          <path class="cls-1" d="M.49,50.23s-.05,0-.07,0c-.27-.04-.46-.29-.42-.56L6.16,6.58c.03-.22.2-.39.42-.42L49.67,0c.27-.04.52.15.56.42.04.27-.15.52-.42.56L7.08,7.08.98,49.81c-.03.25-.25.42-.49.42Z"/>
          <path class="cls-1" d="M.49,50.23c-.05,0-.1,0-.16-.03-.26-.09-.4-.36-.31-.62L12.34,12.65c.05-.15.16-.26.31-.31L49.58.03c.26-.09.54.05.62.31.09.26-.05.54-.31.62L13.19,13.2.96,49.9c-.07.21-.26.34-.47.34Z"/>
          <path class="cls-1" d="M.49,50.23c-.09,0-.17-.02-.25-.07-.23-.14-.31-.44-.17-.68l18.47-30.78c.04-.07.1-.13.17-.17L49.49.07c.23-.14.54-.06.68.17.14.23.06.54-.17.68l-30.68,18.4L.92,49.99c-.09.15-.26.24-.42.24Z"/>
          <path class="cls-1" d="M.49,50.23c-.13,0-.25-.05-.35-.14-.19-.19-.19-.5,0-.7L49.39.15c.19-.19.5-.19.7,0,.19.19.19.5,0,.7L.84,50.09c-.1.1-.22.14-.35.14Z"/>
        </g>
        <g>
          <path class="cls-1" d="M49.74,50.23H.49c-.27,0-.49-.22-.49-.49s.22-.49.49-.49h48.76V.49c0-.27.22-.49.49-.49s.49.22.49.49v49.25c0,.27-.22.49-.49.49Z"/>
          <g>
            <polygon class="cls-1" points="22.04 46.66 43.58 43.58 46.66 22.04 49.74 .49 37.43 37.43 .49 49.74 22.04 46.66"/>
            <path class="cls-1" d="M.49,50.23c-.22,0-.43-.15-.48-.38-.06-.25.08-.5.32-.58l36.7-12.23L49.27.34c.08-.24.33-.38.58-.32.25.06.41.3.37.55l-6.16,43.09c-.03.22-.2.39-.42.42L.56,50.23s-.05,0-.07,0ZM48.48,5.83l-10.58,31.75c-.05.15-.16.26-.31.31l-31.75,10.58,37.32-5.33,5.33-37.32Z"/>
          </g>
          <path class="cls-1" d="M.49,50.23c-.21,0-.4-.13-.47-.34-.09-.26.05-.54.31-.62l36.7-12.23L49.27.34c.09-.26.36-.4.62-.31.26.09.4.36.31.62l-12.31,36.94c-.05.15-.16.26-.31.31L.65,50.21c-.05.02-.1.03-.16.03Z"/>
          <g>
            <polygon class="cls-1" points="15.88 40.51 31.27 31.27 40.51 15.88 49.74 .49 .49 49.74 15.88 40.51"/>
            <path class="cls-1" d="M.49,50.23c-.15,0-.29-.07-.39-.19-.15-.2-.14-.48.04-.65L49.39.15c.18-.18.46-.19.65-.04.2.15.25.43.12.64l-18.47,30.78c-.04.07-.1.13-.17.17L.75,50.16c-.08.05-.17.07-.25.07ZM47.26,3.67L3.67,47.26l27.24-16.35L47.26,3.67Z"/>
          </g>
          <path class="cls-1" d="M.49,50.23c-.13,0-.25-.05-.35-.14-.19-.19-.19-.5,0-.7L49.39.15c.19-.19.5-.19.7,0,.19.19.19.5,0,.7L.84,50.09c-.1.1-.22.14-.35.14Z"/>
        </g>
      </g>
      <path class="cls-1" d="M56.02.62h10.66c5.1,0,8.56.78,10.36,2.35,2.35,1.87,3.52,3.96,3.52,6.26v.88c0,2.77-1.37,5.25-4.11,7.43-2,1.3-3.54,1.96-4.6,1.96-3.41.46-5.75,1.17-7.04,2.15-1.06.85-1.71,1.5-1.96,1.96v8.48c0,1.14.59,2.31,1.76,3.5v.49h-8.6v-.49c1.17-1.24,1.76-2.41,1.76-3.52V4.83c0-1.83-.59-3.05-1.76-3.67v-.54ZM62.87,1.89v19.95c1.71-1.45,3.6-2.4,5.67-2.84,1.69,0,3.23-.62,4.6-1.86,1.5-1.89,2.25-4.24,2.25-7.04,0-3.18-1.27-5.69-3.81-7.53-.99-.46-2.4-.68-4.2-.68h-4.5Z"/>
      <path class="cls-1" d="M81.64.62h21.02l2.05,6.45h-.88c-1.5-3.45-3.78-5.18-6.84-5.18h-8.7v15.84h20.83V4.75c0-1.74-.55-2.99-1.66-3.74v-.39h21.02l2.05,6.45h-.88c-1.37-3.45-3.65-5.18-6.84-5.18h-8.7v15.84h7.43c2.02,0,3.45-1.01,4.3-3.03h.49v7.33h-.49c-.88-2.02-2.33-3.03-4.35-3.03h-7.38v15.55h10.66c3.01,0,5.26-1.73,6.75-5.18h1.08l-2.22,6.7h-23.1v-.49c1.24-.57,1.86-1.63,1.86-3.18v-13.4h-20.83v15.55h10.66c3.01,0,5.26-1.73,6.75-5.18h1.08l-2.13,6.72-23.2-.02v-.49c1.24-.62,1.86-1.65,1.86-3.08V5.05c0-1.94-.55-3.28-1.66-4.01v-.42Z"/>
      <path class="cls-1" d="M134.61.62h8.51v.54c-1.11,1.01-1.66,2.4-1.66,4.16v29.24h9.09c3.42,0,5.93-2.25,7.53-6.75h.88l-2.54,8.26h-21.81v-.49c1.24-1.14,1.86-2.72,1.86-4.74V5.61c0-1.89-.62-3.38-1.86-4.47v-.51Z"/>
      <path class="cls-1" d="M174.38.06c6.09-.03,9.81,2.43,11.15,7.38l-4.69,1.93c-1.14-5.38-3.32-8.07-6.55-8.07-4.22,0-6.27,2.31-6.16,6.92,0,3.03,3.14,5.61,9.41,7.74,6.27,2.13,9.46,5.61,9.56,10.45,0,6.81-4.43,10.17-13.3,10.07-8.54.08-12.81-3.37-12.81-10.34l4.99.07c0,6.4,2.58,9.6,7.75,9.58,5.72-.02,8.51-3.08,8.38-9.19,0-2.57-3.15-4.95-9.44-7.13-6.29-2.18-9.44-5.87-9.44-11.09,0-5.48,3.72-8.25,11.15-8.34Z"/>
    </g>
  </g>
</svg>