<?xml version="1.0" encoding="UTF-8"?>
<svg id="Layer_2" data-name="Layer 2" xmlns="http://www.w3.org/2000/svg" viewBox="0 0 197.01 62.29">
  <defs>
    <style>
      .cls-1 {
        fill: #7f8080;
        stroke-width: 0px;
      }
    </style>
  </defs>
  <g id="Layer_1-2" data-name="Layer 1">
    <g>
      <path class="cls-1" d="M47.19,26.02h-12.05l-3.81,9.84h-.94l11.19-28.7h2.25l10.58,28.7h-3.57l-3.65-9.84ZM46.91,25.16l-5.58-15.05-5.86,15.05h11.44Z"/>
      <path class="cls-1" d="M75.44,7.16v28.7h-1.8l-16.11-27.14v27.14h-.86V7.16h3.77l14.15,23.74V7.16h.86Z"/>
      <path class="cls-1" d="M90.34,7.16c1.48,0,3.01.22,4.6.66,1.59.44,3.05,1.2,4.37,2.28,1.33,1.08,2.42,2.55,3.29,4.41.86,1.86,1.29,4.2,1.29,7.01s-.43,5.19-1.29,7.03c-.86,1.85-1.96,3.31-3.29,4.39-1.33,1.08-2.79,1.84-4.37,2.28-1.59.44-3.12.66-4.6.66h-10.84V7.16h10.84ZM90,35c1.26,0,2.51-.19,3.77-.57,1.26-.38,2.38-1.07,3.38-2.07,1-1,1.81-2.37,2.44-4.12.63-1.75.94-3.99.94-6.72s-.29-4.97-.86-6.72c-.57-1.75-1.35-3.12-2.32-4.12-.97-1-2.09-1.69-3.36-2.07-1.27-.38-2.6-.57-4-.57h-7.13v26.98h7.13Z"/>
      <path class="cls-1" d="M139.61,7.16l-8.73,28.7h-2.05l-6.6-23.04-7.05,23.04h-2.05l-8.24-28.7h3.36l7.13,24.76,7.5-24.76h1.07l7.09,24.76,7.54-24.76h1.03Z"/>
      <path class="cls-1" d="M141.82,35.86V7.16h3.36v28.7h-3.36Z"/>
      <path class="cls-1" d="M162.4,35.29c1.48,0,2.69-.18,3.65-.53.96-.35,1.71-.76,2.26-1.23.66-.52,1.13-1.12,1.43-1.8l1.27,2.83c-.68.3-1.48.57-2.38.82-.77.22-1.67.4-2.71.55-1.04.15-2.21.23-3.53.23-2.21,0-4.21-.35-5.99-1.05-1.78-.7-3.29-1.69-4.53-2.97-1.24-1.28-2.2-2.82-2.87-4.61-.67-1.79-1-3.79-1-6.01s.33-4.22,1-6.01c.67-1.79,1.63-3.33,2.87-4.61,1.24-1.28,2.75-2.28,4.53-2.97,1.78-.7,3.77-1.05,5.99-1.05,1.31,0,2.49.08,3.53.25,1.04.16,1.94.36,2.71.57.9.25,1.69.51,2.38.78l-1.27,2.83c-.3-.66-.78-1.24-1.43-1.76-.55-.46-1.3-.88-2.26-1.25-.96-.37-2.17-.55-3.65-.55-1.7,0-3.22.33-4.57.98-1.35.66-2.51,1.58-3.46,2.77-.96,1.19-1.7,2.64-2.21,4.35-.52,1.71-.78,3.6-.78,5.68s.26,4,.78,5.7c.52,1.7,1.26,3.14,2.21,4.33.96,1.19,2.11,2.11,3.46,2.77s2.88.98,4.57.98Z"/>
      <path class="cls-1" d="M197.01,7.16v28.7h-3.36v-15.13h-15.83v15.13h-3.36V7.16h3.36v12.71h15.83V7.16h3.36Z"/>
      <g>
        <path class="cls-1" d="M30.82,41.17h8.2v1.14h-3.5v9.36h-1.22v-9.36h-3.48v-1.14Z"/>
        <path class="cls-1" d="M50.52,46.93h-5.25v3.6h6.14v1.14h-7.36v-10.5h7.36v1.14h-6.14v3.48h5.25v1.14Z"/>
        <path class="cls-1" d="M64.5,50.56s-1.12,1.35-3.48,1.35c-3.11,0-5.23-2.41-5.23-5.48s2.12-5.49,5.23-5.49c2.36,0,3.48,1.35,3.48,1.35l-.7.94s-1.05-1.14-2.76-1.14c-2.36,0-3.99,1.96-3.99,4.34s1.63,4.32,3.99,4.32c1.71,0,2.76-1.14,2.76-1.14l.7.94Z"/>
        <path class="cls-1" d="M77.93,51.67h-1.22v-4.6h-5.95v4.6h-1.22v-10.5h1.22v4.76h5.95v-4.76h1.22v10.5Z"/>
        <path class="cls-1" d="M92.71,51.67h-.87l-6.66-8.33v8.33h-1.22v-10.5h.89l6.65,8.29v-8.29h1.22v10.5Z"/>
        <path class="cls-1" d="M99.96,51.67h-1.22v-10.5h1.22v10.5Z"/>
        <path class="cls-1" d="M105.27,46.44c0-3.1,2.03-5.49,5.18-5.49s5.2,2.4,5.2,5.49c0,2.17-1.01,4.02-2.73,4.92l1.52,2.45h-1.4l-1.26-2.05c-.42.09-.86.16-1.33.16-3.15,0-5.18-2.41-5.18-5.48ZM114.41,46.44c0-2.38-1.52-4.34-3.95-4.34s-3.92,1.96-3.92,4.34,1.5,4.3,3.92,4.3,3.95-1.94,3.95-4.3Z"/>
        <path class="cls-1" d="M120.83,47.28v-6.1h1.22v6.1c0,2.01,1,3.48,2.99,3.48s2.99-1.47,2.99-3.48v-6.1h1.22v6.1c0,2.75-1.52,4.64-4.22,4.64s-4.22-1.89-4.22-4.64Z"/>
        <path class="cls-1" d="M141.61,46.93h-5.25v3.6h6.14v1.14h-7.36v-10.5h7.36v1.14h-6.14v3.48h5.25v1.14Z"/>
      </g>
      <path class="cls-1" d="M25.84,36.43c1.1-1.16,1.89-2.51,2.37-4.04.47-1.53.66-3.16.55-4.9-.11-1.85-.76-3.37-1.93-4.55-1.17-1.18-2.62-2.19-4.34-3.04-1.72-.84-3.57-1.59-5.55-2.25-1.97-.65-3.82-1.4-5.54-2.22-1.72-.82-3.17-1.81-4.34-2.95-1.17-1.14-1.81-2.6-1.91-4.38-.12-1.93.59-3.51,2.13-4.74,1.54-1.23,3.57-1.93,6.1-2.08,2.04-.12,3.76.03,5.15.45,1.39.43,2.5.94,3.34,1.53.99.66,1.76,1.43,2.31,2.31l1.52-4.02c-1.04-.32-2.2-.6-3.47-.87-1.12-.23-2.41-.42-3.88-.56-1.47-.14-3.11-.15-4.93-.04-1.85.11-3.53.39-5.04.82-1.51.43-2.8,1.07-3.87,1.91-1.07.84-1.88,1.93-2.42,3.25-.54,1.32-.76,2.93-.64,4.82.1,1.7.5,3.13,1.2,4.28.69,1.15,1.58,2.13,2.65,2.94,1.07.81,2.28,1.48,3.62,2.03,1.34.54,2.71,1.05,4.11,1.51.02,0,.03.01.05.02-.36.01-.72.03-1.09.05-1.85.11-3.53.39-5.04.82-1.51.43-2.8,1.07-3.87,1.92-.98.78-1.75,1.75-2.28,2.93-.05.1-.1.21-.14.31-.52,1.27-.74,2.79-.66,4.57,0,.09,0,.17.01.25.1,1.7.5,3.13,1.2,4.28.69,1.15,1.58,2.13,2.65,2.94,1.07.81,2.28,1.48,3.62,2.03,1.34.55,2.71,1.05,4.11,1.52,1.39.47,2.76.94,4.1,1.43,1.34.49,2.54,1.08,3.61,1.77,1.01.66,1.85,1.45,2.51,2.39.04.05.08.11.12.16.62.9.99,2,1.13,3.32.02.15.03.3.04.45.06,1.06-.1,2.06-.5,3.02-.39.95-1,1.81-1.81,2.56-.81.75-1.79,1.36-2.94,1.83-1.15.47-2.44.74-3.87.83-2.31.14-4.21-.11-5.71-.76-.84-.36-1.6-.76-2.26-1.2-.51-.33-.97-.68-1.38-1.06-1.03-.94-1.85-2.07-2.46-3.37-.47,1.27-.65,2.78-.54,4.54.02.33.05.66.1.97.48.24.99.46,1.54.67,1.17.46,2.64.84,4.42,1.15.39.07.79.12,1.21.17,1.51.17,3.23.19,5.15.07,2.38-.14,4.42-.58,6.12-1.31,1.7-.73,3.1-1.68,4.21-2.85,1.1-1.17,1.89-2.51,2.37-4.04.47-1.53.66-3.16.55-4.9-.11-1.85-.76-3.37-1.93-4.55-1.17-1.18-2.62-2.19-4.34-3.04-.92-.45-1.87-.87-2.86-1.26,1.26-.23,2.4-.56,3.42-.99,1.7-.73,3.1-1.68,4.21-2.85ZM15.78,39.36c-.09-.03-.17-.06-.26-.09-1.97-.65-3.82-1.4-5.54-2.22-1.72-.83-3.17-1.81-4.34-2.95-.03-.03-.06-.05-.08-.08-.86-.87-1.42-1.91-1.68-3.14-.08-.37-.13-.75-.16-1.16-.12-1.93.59-3.51,2.13-4.74,1.54-1.23,3.57-1.92,6.1-2.08,2.04-.12,3.76.03,5.15.45,1.39.43,2.5.94,3.34,1.53.26.17.5.36.73.54,1.2,1.06,3.97,4.12,2.69,9.13,0,0,0,.02,0,.03-.39.79-.93,1.5-1.62,2.14-.81.75-1.79,1.36-2.94,1.83-1.05.43-2.23.7-3.53.8Z"/>
    </g>
  </g>
</svg>